<?xml version="1.0" standalone="no"?>
<!DOCTYPE svg PUBLIC "-//W3C//DTD SVG 20010904//EN"
 "http://www.w3.org/TR/2001/REC-SVG-20010904/DTD/svg10.dtd">
<svg version="1.0" xmlns="http://www.w3.org/2000/svg"
 width="491.000000pt" height="491.000000pt" viewBox="0 0 491.000000 491.000000"
 preserveAspectRatio="xMidYMid meet">
<metadata>
Created by potrace 1.11, written by Peter Selinger 2001-2013
</metadata>
<g transform="translate(0.000000,491.000000) scale(0.100000,-0.100000)"
fill="#000000" stroke="none">
<path d="M1354 4624 c-218 -45 -354 -238 -391 -554 -9 -83 -9 -313 1 -410 6
-59 45 -304 56 -355 5 -23 -2 -33 -27 -40 -76 -18 -313 -114 -428 -173 -72
-37 -132 -69 -135 -72 -3 -3 -39 -27 -80 -55 -41 -27 -116 -90 -165 -140 -74
-73 -99 -106 -134 -178 -38 -77 -44 -97 -47 -166 -5 -134 41 -249 147 -365
104 -113 285 -242 444 -315 154 -71 236 -105 350 -142 39 -13 73 -26 78 -29 4
-3 2 -31 -4 -61 -5 -30 -12 -63 -14 -74 -5 -23 -22 -132 -29 -185 -11 -77 -17
-181 -17 -285 3 -564 243 -831 661 -734 229 53 511 221 795 474 22 19 42 35
46 35 3 0 14 -8 25 -18 17 -15 121 -104 193 -165 58 -48 246 -168 337 -214
410 -210 713 -159 855 143 64 139 90 298 84 534 -4 175 -12 246 -46 428 -13
66 -18 116 -13 121 5 4 52 23 104 41 450 155 762 376 871 616 41 89 48 205 18
291 -90 263 -425 508 -919 672 -98 32 -93 24 -71 133 11 53 23 120 26 150 3
29 10 80 14 113 13 92 11 380 -4 472 -46 284 -171 457 -369 509 -68 18 -222
11 -306 -14 -223 -66 -437 -191 -678 -396 -46 -39 -94 -80 -107 -90 l-24 -19
-68 59 c-37 32 -70 61 -73 64 -13 13 -172 131 -227 168 -151 102 -356 195
-485 222 -85 17 -175 19 -244 4z m2208 -236 c115 -63 169 -249 163 -553 -2
-93 -5 -181 -8 -195 -3 -14 -8 -44 -11 -68 -11 -82 -38 -217 -45 -225 -5 -5
-44 1 -87 11 -43 11 -108 25 -144 31 -36 6 -76 13 -90 15 -71 13 -240 37 -272
39 -32 3 -43 11 -82 63 -103 134 -280 345 -330 393 -20 19 -36 40 -36 47 0 15
151 144 265 226 112 80 192 128 275 165 101 45 120 52 190 67 89 18 161 13
212 -16z m-1932 -7 c84 -29 216 -95 311 -156 71 -47 228 -164 259 -195 8 -8
26 -24 40 -35 51 -41 53 -49 20 -85 -17 -19 -54 -60 -83 -93 -29 -33 -58 -65
-64 -72 -7 -7 -41 -48 -75 -92 -34 -43 -66 -82 -71 -88 -4 -5 -26 -34 -48 -64
-29 -39 -48 -55 -67 -57 -15 -2 -45 -5 -67 -8 -22 -3 -60 -8 -85 -11 -25 -3
-56 -7 -70 -10 -14 -3 -41 -7 -60 -10 -19 -3 -69 -13 -110 -21 -41 -9 -86 -17
-100 -19 -14 -2 -41 -9 -60 -15 -53 -15 -56 -14 -68 43 -89 415 -67 802 55
947 46 55 94 72 193 67 50 -3 112 -14 150 -26z m941 -722 c32 -35 79 -91 107
-124 l50 -60 -273 0 -274 -1 36 46 c69 86 128 155 182 212 l54 58 31 -33 c17
-19 56 -62 87 -98z m114 -414 c94 -4 181 -8 194 -8 28 -1 50 -30 163 -211 142
-228 308 -535 308 -570 0 -22 -150 -312 -235 -456 -51 -85 -191 -305 -209
-327 -1 -1 -73 -5 -161 -9 -201 -10 -398 -10 -585 -1 -171 8 -148 -8 -276 194
-109 172 -189 312 -267 467 l-64 129 82 161 c127 251 350 615 378 617 6 0 21
2 32 5 11 2 106 7 210 10 105 4 191 8 193 9 1 1 17 1 35 -1 17 -1 109 -6 202
-9z m-988 -68 c-25 -35 -171 -285 -212 -362 -21 -38 -40 -74 -42 -79 -7 -10
-21 23 -61 134 -93 261 -92 250 -22 266 30 7 75 16 100 20 25 3 48 8 51 10 4
2 24 6 45 10 22 3 55 9 74 13 19 4 46 8 59 9 22 2 23 1 8 -21z m1608 6 c49 -7
227 -43 266 -54 l37 -9 -28 -88 c-16 -48 -46 -135 -67 -194 -32 -88 -40 -104
-49 -90 -6 9 -28 49 -49 87 -41 75 -169 291 -200 339 l-19 29 39 -8 c22 -4 54
-9 70 -12z m-2215 -137 c0 -26 82 -259 149 -427 l67 -166 -61 -154 c-61 -152
-106 -279 -141 -392 -20 -69 -7 -69 -189 -1 -314 117 -567 285 -656 434 -64
108 -38 211 86 334 121 120 317 232 580 332 152 58 165 61 165 40z m2813 -10
c387 -130 670 -314 758 -491 25 -52 29 -69 24 -109 -26 -185 -326 -405 -763
-556 -51 -18 -94 -31 -95 -29 -2 2 -25 71 -51 153 -27 82 -77 217 -111 302
l-63 153 54 128 c29 70 79 206 111 301 31 94 59 172 61 172 2 0 36 -11 75 -24z
m-2415 -948 c47 -89 157 -277 203 -346 l21 -32 -38 5 c-135 20 -355 64 -366
74 -3 3 18 78 49 166 30 88 59 175 65 193 6 17 12 32 14 32 1 0 24 -42 52 -92z
m2061 -112 c41 -122 57 -182 50 -187 -13 -8 -159 -40 -248 -55 -18 -3 -43 -7
-54 -10 -12 -2 -39 -6 -61 -10 -39 -5 -39 -5 -24 18 77 118 248 421 248 440 0
40 36 -39 89 -196z m-2209 -427 c36 -9 165 -34 230 -44 19 -3 60 -10 90 -15
68 -11 168 -23 197 -25 15 0 43 -29 94 -95 93 -123 198 -248 277 -331 34 -37
62 -71 62 -77 0 -24 -259 -228 -395 -312 -199 -122 -401 -181 -510 -147 -98
30 -169 155 -193 342 -9 67 -8 336 1 410 15 119 18 140 22 160 2 11 9 47 15
80 7 33 14 63 17 68 4 7 19 5 93 -14z m2330 14 c0 -5 6 -39 14 -78 8 -38 17
-90 21 -115 3 -25 8 -56 10 -70 17 -100 23 -335 10 -429 -19 -148 -54 -247
-109 -309 -105 -118 -364 -66 -662 134 -94 62 -216 158 -294 228 -45 40 -45
43 5 91 53 52 245 284 315 382 48 66 52 68 155 78 33 3 69 8 80 10 11 2 38 7
60 10 22 4 49 8 60 10 73 11 208 37 250 49 58 16 85 19 85 9z m-973 -168 c-45
-58 -143 -172 -196 -228 l-45 -47 -46 49 c-25 27 -59 64 -75 82 -40 44 -145
175 -145 180 0 2 121 4 269 4 l269 0 -31 -40z"/>
<path d="M2310 2887 c-259 -89 -383 -375 -271 -622 113 -246 419 -339 653
-198 269 161 292 545 46 743 -84 67 -154 92 -268 96 -78 2 -107 -1 -160 -19z"/>
</g>
</svg>
